<svg width="512" height="512" viewBox="0 0 512 512" fill="none" xmlns="http://www.w3.org/2000/svg">
<path d="M453.6 314.4C454.4 313.6 456 312.8 456.8 312.8C461.6 311.2 466.4 311.2 471.2 313.6C476.8 316 480.8 322.4 480.8 328C480.8 335.2 478.4 340 473.6 344C472.8 344 472.8 344.8 472 344.8C457.6 354.4 443.2 362.4 428 370.4C443.2 367.2 458.4 363.2 471.2 355.2C475.2 352.8 480 352 484.8 353.6C492 356 496 364 495.2 371.2C495.2 372.8 494.4 374.4 493.6 376C492.8 378.4 491.2 380 488.8 381.6C457.6 402.4 419.2 414.4 380.8 421.6C364.8 424.8 348.8 425.6 332.8 424.8C310.4 423.2 288.8 424.8 267.2 427.2C224 432 153.6 451.2 97.5998 472C60.7998 444.8 31.9998 409.6 12.7998 368C31.9998 365.6 62.3998 364.8 79.9998 362.4C104 358.4 127.2 354.4 150.4 350.4C208.8 339.2 260.8 304 293.6 254.4C299.2 261.6 304.8 268.8 309.6 276C346.4 256.8 386.4 243.2 427.2 233.6C428 233.6 428 233.6 428.8 233.6C432.8 232.8 437.6 233.6 442.4 236.8C447.2 240.8 449.6 246.4 449.6 252C449.6 257.6 446.4 261.6 443.2 264.8C442.4 265.6 441.6 266.4 440.8 266.4C421.6 278.4 402.4 288 382.4 297.6C405.6 290.4 427.2 284 448.8 272.8C453.6 270.4 459.2 269.6 464.8 272.8C470.4 275.2 473.6 281.6 474.4 287.2C475.2 293.6 472 299.2 467.2 303.2C466.4 304 465.6 304 464.8 304.8C444 317.6 422.4 330.4 400 340.8C418.4 332 436.8 324.8 453.6 314.4Z" fill="#FFCCBC"/>
<path d="M308.8 426.4C309.6 430.4 308 434.4 304.8 437.6C300 443.2 291.2 444.8 284.8 441.6C280.8 439.2 278.4 435.2 276.8 430.4C273.6 415.2 266.4 401.6 259.2 387.2C263.2 404 266.4 420.8 269.6 437.6C269.6 438.4 269.6 438.4 269.6 439.2C270.4 444.8 268 451.2 262.4 455.2C257.6 459.2 250.4 460 244.8 457.6C240 455.2 236 451.2 234.4 447.2C233.6 445.6 233.6 444.8 233.6 443.2C229.6 423.2 223.2 404.8 216 385.6C223.2 409.6 227.2 434.4 232 458.4C232 459.2 232 460 232.8 460.8C232.8 466.4 231.2 472 225.6 476.8C220.8 480.8 214.4 481.6 208.8 479.2C203.2 476.8 199.2 472 198.4 466.4C192.8 442.4 183.2 421.6 172.8 399.2C179.2 420.8 184 441.6 188 464C188 464.8 188 466.4 188.8 467.2C188.8 472 187.2 476.8 184 480.8C180.8 484 176 486.4 170.4 485.6C169.6 485.6 168.8 485.6 168 485.6C162.4 484.8 159.2 481.6 156.8 477.6C156.8 476.8 156 476.8 156 476C135.2 437.6 118.4 396.8 108 354.4C99.9998 356 91.1998 357.6 83.1998 358.4C97.5998 300.8 89.5998 239.2 59.1998 187.2C46.3998 165.6 33.5998 144.8 20.7998 124C39.9998 89.5998 66.3998 59.9998 97.5998 36.7998C122.4 95.1998 164 180.8 194.4 224.8C207.2 243.2 220 260.8 236 276.8C247.2 288.8 257.6 301.6 265.6 315.2C286.4 351.2 303.2 388.8 308.8 426.4Z" fill="#FFCC80"/>
<path d="M497.6 140C478.4 142.4 449.6 148 432 150.4C408.8 154.4 385.6 158.4 362.4 162.4C304 173.6 252 208.8 219.2 259.2C213.6 252 208 244.8 203.2 237.6C166.4 256 126.4 270.4 85.6 279.2C84.8 279.2 84.8 279.2 84 279.2C80 280 75.2 279.2 70.4 276C65.6 272 63.2 266.4 63.2 260.8C64 256 66.4 251.2 70.4 248C71.2 247.2 72 247.2 72.8 246.4C92 235.2 111.2 224.8 131.2 215.2C108 222.4 86.4 228.8 64.8 240C60 242.4 54.4 243.2 48.8 240C43.2 237.6 40 232 39.2 225.6C38.4 219.2 41.6 213.6 46.4 209.6C47.2 208.8 48 208.8 48.8 208C69.6 195.2 91.2 182.4 113.6 172C95.2 179.2 76.8 186.4 59.2 196.8C58.4 197.6 56.8 198.4 56 198.4C51.2 200 46.4 200 41.6 197.6C36 194.4 32 188.8 32 182.4C32 176 34.4 170.4 39.2 166.4C40 166.4 40 165.6 40.8 165.6C55.2 156 70.4 148 84.8 140C69.6 143.2 54.4 147.2 41.6 155.2C37.6 157.6 32.8 158.4 28 156.8C20.8 154.4 16.8 147.2 17.6 139.2C17.6 137.6 18.4 136 19.2 134.4C20 132 21.6 130.4 24 128.8C55.2 108 93.6 96.0001 132 88.8001C148 85.6001 164 84.8001 180 85.6001C202.4 87.2001 224 85.6001 245.6 83.2001C289.6 77.6001 359.2 58.4001 413.6 37.6001C449.6 65.6001 478.4 100 497.6 140Z" fill="#FFCDD2"/>
<path d="M472 355.2C470.4 352.8 468.8 350.4 467.2 348C454.4 356 441.6 364 428 370.4C443.2 367.2 458.4 363.2 472 355.2Z" fill="#935F2F"/>
<path d="M447.2 312.8C432 322.4 416 331.2 400 339.2C416.8 332.8 433.6 326.4 449.6 316.8C448.8 316 448 314.4 447.2 312.8Z" fill="#935F2F"/>
<path d="M432 278.4C431.2 276 430.4 273.6 429.6 270.4C413.6 280 397.6 288 380.8 296C398.4 291.2 416 285.6 432 278.4Z" fill="#935F2F"/>
<path d="M245.6 194.4C253.6 208.8 264 221.6 275.2 232.8C288 245.6 299.2 260 309.6 274.4C345.6 256 383.2 243.2 422.4 233.6C419.2 206.4 420.8 178.4 428 151.2C420 152.8 411.2 153.6 403.2 155.2C392 112.8 376 72.8 355.2 33.6C355.2 32.8 354.4 32.8 354.4 32C352 28 348.8 24.8 343.2 24C342.4 24 340.8 24 340 24C335.2 24 330.4 25.6 327.2 28.8C323.2 32.8 321.6 37.6 322.4 42.4C322.4 43.2 322.4 44.8 322.4 45.6C326.4 68 332 88.8 338.4 110.4C328.8 88 318.4 67.2 312.8 43.2C311.2 37.6 308 32.8 302.4 30.4C296.8 28 290.4 28.8 285.6 32.8C280 36.8 278.4 43.2 278.4 48.8C278.4 49.6 278.4 50.4 279.2 51.2C284 76 288 100 295.2 124C288 105.6 280.8 86.4 277.6 66.4C277.6 64.8 277.6 64 276.8 62.4C275.2 57.6 272 53.6 266.4 52C260 51.2 253.6 52 248 56C243.2 60 240.8 66.4 241.6 72C241.6 72.8 241.6 72.8 241.6 73.6C244 90.4 248 107.2 252 124C244.8 110.4 237.6 96 234.4 80.8C233.6 76.8 231.2 72 226.4 69.6C220 65.6 211.2 67.2 206.4 73.6C204 76.8 202.4 80.8 202.4 84.8C208.8 123.2 225.6 160.8 245.6 194.4Z" fill="#6D4C41"/>
<path d="M392 419.2C400.8 437.6 409.6 455.2 416 470.4C446.4 447.2 472 418.4 490.4 384.8C489.6 384 488.8 382.4 488 381.6C460.8 400.8 426.4 412 392 419.2Z" fill="#935F2F"/>
</svg>
