<svg width="500" height="500" viewBox="0 0 500 500" fill="none" xmlns="http://www.w3.org/2000/svg">
<rect width="500" height="500" rx="250" fill="black"/>
<rect x="73" y="82" width="353" height="336" rx="150" fill="white"/>
<path fill-rule="evenodd" clip-rule="evenodd" d="M246.552 50C138.009 50 50 140.836 50 252.892C50 342.523 113.176 422.806 191.306 449.644C201.136 451.495 204.233 445.484 204.233 440.106C204.233 435.286 204.331 421.817 204.233 404.885C149.562 417.149 138.232 378.162 138.232 378.162C129.299 354.723 116.421 348.483 116.421 348.483C98.5779 335.901 117.76 336.142 117.76 336.142C137.483 337.576 147.879 357.057 147.879 357.057C165.414 388.042 193.874 379.087 205.069 373.913C206.863 360.798 211.95 351.857 217.566 346.784C173.918 341.66 128.033 324.258 128.033 246.511C128.033 224.353 135.689 206.255 148.26 192.075C146.232 186.951 139.474 166.315 150.189 138.375C150.189 138.375 166.692 132.921 204.233 159.188C219.913 154.685 236.736 152.44 253.448 152.364C270.148 152.44 286.958 154.685 302.663 159.188C340.204 132.933 356.682 138.375 356.682 138.375C367.398 166.315 360.651 186.951 358.636 192.075C371.207 206.255 378.838 224.353 378.838 246.511C378.838 324.461 332.88 341.609 289.084 346.619C296.138 352.897 302.54 365.073 302.54 383.996C302.54 409.362 302.54 433.485 302.54 440.157C302.54 445.585 305.71 451.584 315.688 449.618C393.744 422.743 450 346.733 450 257.127C450 145.071 355.12 50 246.552 50Z" fill="black"/>
</svg>
